<svg xmlns="http://www.w3.org/2000/svg" width="600" height="800" viewBox="0 0 600 800">
  <defs>
    <linearGradient id="bg" x1="0" y1="0" x2="1" y2="1">
      <stop offset="0" stop-color="#fff1cf"/>
      <stop offset="0.55" stop-color="#d1a24a"/>
      <stop offset="1" stop-color="#6d4f21"/>
    </linearGradient>
    <filter id="grit" x="-20%" y="-20%" width="140%" height="140%">
      <feTurbulence type="fractalNoise" baseFrequency="0.9" numOctaves="2" seed="23"/>
      <feColorMatrix type="saturate" values="0.35"/>
      <feComponentTransfer>
        <feFuncA type="table" tableValues="0 0.55"/>
      </feComponentTransfer>
    </filter>
    <pattern id="ore" width="120" height="120" patternUnits="userSpaceOnUse">
      <circle cx="22" cy="26" r="10" fill="#f1cf88" opacity="0.18"/>
      <circle cx="86" cy="44" r="8" fill="#e7bd65" opacity="0.16"/>
      <path d="M12 88 L108 28" stroke="#5e431a" stroke-width="3" opacity="0.18"/>
      <path d="M22 20 L42 44" stroke="#8c6a30" stroke-width="3" opacity="0.22"/>
    </pattern>
    <pattern id="scrape" width="120" height="120" patternUnits="userSpaceOnUse">
      <path d="M8 24 L112 56" stroke="#6a4414" stroke-width="2" opacity="0.25"/>
      <path d="M6 86 L116 100" stroke="#56350f" stroke-width="2" opacity="0.22"/>
    </pattern>
    <linearGradient id="frame" x1="0" y1="0" x2="0" y2="1">
      <stop offset="0" stop-color="#8a641f"/>
      <stop offset="1" stop-color="#f7deb1"/>
    </linearGradient>
    <radialGradient id="shine" cx="0.2" cy="0.1" r="0.85">
      <stop offset="0" stop-color="#fff8e9" stop-opacity="0.68"/>
      <stop offset="1" stop-color="#ffffff" stop-opacity="0"/>
    </radialGradient>
  </defs>
  <rect x="10" y="10" width="580" height="780" rx="30" fill="url(#bg)"/>
  <rect x="10" y="10" width="580" height="780" rx="30" filter="url(#grit)" opacity="0.6"/>
  <rect x="10" y="10" width="580" height="780" rx="30" fill="url(#scrape)" opacity="0.5"/>
  <rect x="10" y="10" width="580" height="780" rx="30" fill="url(#ore)" opacity="0.62"/>
  <rect x="28" y="28" width="544" height="744" rx="24" fill="none" stroke="url(#frame)" stroke-width="6"/>
  <rect x="45" y="45" width="510" height="710" rx="20" fill="none" stroke="#79571d" stroke-width="2" opacity="0.75"/>
  <g transform="translate(300 362)">
    <polygon points="0,-150 40,-45 150,-35 60,35 90,145 0,85 -90,145 -60,35 -150,-35 -40,-45" fill="#fff0d7" stroke="#8a641f" stroke-width="6"/>
    <polygon points="0,-105 34,-28 104,-18 44,26 66,98 0,58 -66,98 -44,26 -104,-18 -34,-28" fill="#d29d47" opacity="0.92"/>
    <path d="M-55 24 L8 -40" stroke="#5d4318" stroke-width="10" stroke-linecap="round"/>
    <path d="M-12 -42 L26 -80" stroke="#5d4318" stroke-width="10" stroke-linecap="round"/>
    <path d="M12 -58 L44 -26" stroke="#f3dfb3" stroke-width="12" stroke-linecap="round"/>
    <path d="M-22 0 L54 78" stroke="#f3dfb3" stroke-width="12" stroke-linecap="round"/>
  </g>
  <rect x="82" y="636" width="436" height="76" rx="16" fill="#2a1b08" opacity="0.7"/>
  <text x="300" y="688" text-anchor="middle" font-family="'Times New Roman', serif" font-size="42" fill="#fff0d8" letter-spacing="5">PROSPECTOR</text>
  <rect x="10" y="10" width="580" height="780" rx="30" fill="url(#shine)"/>
</svg>
